<?xml version="1.0" encoding="iso-8859-1"?>
<!-- Generator: Adobe Illustrator 19.0.0, SVG Export Plug-In . SVG Version: 6.00 Build 0)  -->
<svg version="1.1" id="Capa_1" xmlns="http://www.w3.org/2000/svg" xmlns:xlink="http://www.w3.org/1999/xlink" x="0px" y="0px"
	 viewBox="0 0 436.907 436.907" style="enable-background:new 0 0 436.907 436.907;" xml:space="preserve">
<circle style="fill:#EFC84A;" cx="218.453" cy="218.453" r="218.453"/>
<g style="opacity:0.1;">
	<path d="M422.044,297.64L243.951,119.547c-26.822-30.809-72.451-39.62-109.425-18.771c-42.287,23.845-57.238,77.456-33.393,119.744
		c4.22,7.485,9.389,14.094,15.247,19.803l-0.01,0.009l181.588,181.588C354.738,399.714,399.925,354.463,422.044,297.64z"/>
</g>
<path style="fill:#3EA69B;" d="M343.528,337.048l-7.063,6.961c-4.744,4.676-12.38,4.62-17.056-0.124L212.17,235.077
	c-4.676-4.744-4.62-12.38,0.124-17.056l7.063-6.961c4.744-4.676,12.38-4.62,17.056,0.124l107.239,108.808
	C348.328,324.736,348.272,332.373,343.528,337.048z"/>
<rect x="217.807" y="210.369" transform="matrix(-0.7122 0.702 -0.702 -0.7122 566.2135 235.5387)" style="fill:#F6C358;" width="34.038" height="46.93"/>
<ellipse style="fill:#E56353;" cx="177.697" cy="177.339" rx="87.904" ry="87.904"/>
<ellipse style="fill:#E1E6E9;" cx="177.697" cy="177.339" rx="68.574" ry="68.574"/>
<g>
	<path style="fill:#FFFFFF;" d="M229.945,184.364c-0.384,0.217-0.819,0.357-1.287,0.393c-1.721,0.136-3.227-1.149-3.363-2.869
		c-1.436-18.183-7.8-31.975-18.911-40.991c-18.462-14.981-44.004-11.879-44.26-11.846c-1.711,0.222-3.279-0.986-3.499-2.698
		c-0.223-1.714,0.989-3.28,2.698-3.501c1.153-0.149,28.478-3.461,48.999,13.19c12.494,10.139,19.629,25.399,21.206,45.353
		C231.627,182.649,230.972,183.786,229.945,184.364z"/>
	<ellipse style="fill:#FFFFFF;" cx="229.971" cy="193.936" rx="4.69" ry="4.69"/>
</g>
<g>
</g>
<g>
</g>
<g>
</g>
<g>
</g>
<g>
</g>
<g>
</g>
<g>
</g>
<g>
</g>
<g>
</g>
<g>
</g>
<g>
</g>
<g>
</g>
<g>
</g>
<g>
</g>
<g>
</g>
</svg>
